<svg width="25" height="24" viewBox="0 0 25 24" fill="none" xmlns="http://www.w3.org/2000/svg">
<path d="M12.8524 0H0V24H12.8524C19.5688 24 25 18.6143 25 12C25 5.38566 19.5688 0 12.8524 0Z" fill="url(#paint0_radial)"/>
<path d="M20.1388 9.87691L18.0092 6.21712L14.3028 8.3402V4.11426H10.0231V8.3402L6.31674 6.21712L4.16663 9.87691L7.89349 12L4.16663 14.123L6.31674 17.7626L10.0231 15.6597V19.8857H14.3028V15.6597L18.0092 17.7626L20.1388 14.123L16.4325 12L20.1388 9.87691Z" fill="#0F0F0F"/>
<path d="M18.1054 6.17139L14.5834 8.17933L16.6169 11.6571L20.1389 9.64915L18.1054 6.17139Z" fill="white"/>
<defs>
<radialGradient id="paint0_radial" cx="0" cy="0" r="1" gradientUnits="userSpaceOnUse" gradientTransform="translate(4.15501e-06 23.9839) rotate(-49.8927) scale(29.3423 32.0161)">
<stop stop-color="#84FF96"/>
<stop offset="0.453125" stop-color="#2EEC8D"/>
<stop offset="0.911458" stop-color="#00CA75"/>
</radialGradient>
</defs>
</svg>
