<svg width="199" height="35" viewBox="0 0 199 35" fill="none" xmlns="http://www.w3.org/2000/svg">
<path fill-rule="evenodd" clip-rule="evenodd" d="M63.9442 7.5874H59.766L59.7412 15.1078C58.5541 13.234 56.4528 12.8592 55.5627 12.8592C52.0023 12.8592 48.7881 15.4826 48.7881 20.1547C48.7881 24.8268 52.0271 27.4752 55.5627 27.4752C57.1451 27.4752 58.851 26.6757 59.7412 25.2266V27.2004H61.8428H63.9442V7.5874ZM59.766 20.1547C59.766 22.0285 58.2577 23.7025 56.3787 23.7025C54.277 23.7025 53.09 22.0036 53.09 20.1547C53.09 18.2808 54.277 16.6069 56.3787 16.6069C58.2328 16.6069 59.766 18.3058 59.766 20.1547ZM69.7051 27.1754H71.8068V12.9841H69.7051H67.6035L67.6531 27.1754H69.7051ZM82.6609 27.1754H81.0785H80.8809H79.2243L73.4634 12.9841H77.9139L80.9054 21.5538L83.8724 12.9841H88.323L82.6609 27.1754ZM67.6283 7.5874H71.5596V11.56H67.6283V7.5874Z" fill="#32EC8D"/>
<path d="M108.893 7.5874C107.707 7.5874 106.644 7.5874 106.644 7.5874V25.2826V27.1544C106.644 27.1544 107.707 27.1544 108.893 27.1544C110.105 27.1544 111.143 27.1544 111.143 27.1544V7.5874C111.143 7.5874 110.13 7.5874 108.893 7.5874Z" fill="white"/>
<path d="M153.572 27.1549C153.572 27.1549 152.61 27.1549 151.45 27.1549C150.34 27.1549 149.329 27.1549 149.329 27.1549V19.5262C149.329 17.6814 148.218 16.734 146.96 16.734C145.653 16.734 144.592 17.5318 144.592 19.5761V27.13C144.592 27.13 143.63 27.13 142.47 27.13C141.36 27.13 140.398 27.13 140.398 27.13L140.349 19.4265C140.349 17.6564 139.239 16.734 138.03 16.734C136.772 16.734 135.587 17.457 135.587 19.5761V27.13C135.587 27.13 134.625 27.13 133.466 27.13C132.356 27.13 131.394 27.13 131.394 27.13V12.8449C131.394 12.8449 132.356 12.8449 133.466 12.8449C134.625 12.8449 135.587 12.8449 135.587 12.8449V15.0387C136.254 13.5678 137.758 12.7451 139.263 12.7451C141.483 12.7451 142.988 13.4681 143.901 15.3878C144.913 13.169 147.009 12.7202 148.021 12.7202C151.376 12.7202 153.498 14.8642 153.547 19.0775V27.1549H153.572Z" fill="white"/>
<path d="M177.422 15.0637C178.167 13.6676 179.829 12.7202 181.492 12.7202C184.668 12.7202 186.679 14.6648 186.679 18.6537V27.1549C186.679 27.1549 185.711 27.1549 184.569 27.1549C183.452 27.1549 182.485 27.1549 182.485 27.1549L182.435 19.5511C182.435 17.7063 181.418 16.7589 179.978 16.7589C178.514 16.7589 177.373 17.4819 177.373 19.601V27.13C177.373 27.13 176.405 27.13 175.263 27.13C174.147 27.13 173.179 27.13 173.179 27.13V12.8698C173.179 12.8698 174.171 12.8698 175.288 12.8698C176.43 12.8698 177.397 12.8698 177.397 12.8698L177.422 15.0637Z" fill="white"/>
<path d="M195.788 12.8453V7.50293C195.788 7.50293 194.836 7.50293 193.685 7.50293C192.583 7.50293 191.581 7.50293 191.581 7.50293V12.8453H188.928C188.928 12.8453 188.928 13.5958 188.928 14.5214C188.928 15.3969 188.928 16.1474 188.928 16.1474L191.581 16.1974V27.1545H193.685H195.788V16.1974H198.892V12.8703H195.788V12.8453Z" fill="white"/>
<path d="M104.394 20.173C104.394 15.6963 101.136 12.7202 97.0763 12.7202C92.9663 12.7202 89.6084 15.5713 89.6084 20.0479C89.6084 24.5246 92.9915 27.4757 97.0763 27.4757H100.058V23.7993C100.058 23.7993 99.2315 23.8243 97.4022 23.8243C95.8984 23.8243 94.0942 23.1241 93.8936 21.4985H104.218C104.218 21.4985 104.394 20.9483 104.394 20.173ZM93.9439 18.8725C94.2946 17.0968 95.5225 16.2965 97.1263 16.2965C98.7053 16.2965 99.908 17.1469 100.134 18.8725H93.9439Z" fill="white"/>
<path d="M128.18 20.173C128.18 15.6963 125.083 12.7202 121.182 12.7202C117.256 12.7202 114.037 15.5713 114.037 20.0479C114.037 24.5246 117.256 27.4757 121.182 27.4757H124.034V23.7993C124.034 23.7993 123.254 23.8243 121.498 23.8243C120.084 23.8243 118.353 23.1241 118.133 21.4985H128.009C128.009 21.4985 128.18 20.9483 128.18 20.173ZM118.207 18.8725C118.548 17.0968 119.718 16.2965 121.23 16.2965C122.742 16.2965 123.888 17.1469 124.083 18.8725H118.207Z" fill="white"/>
<path d="M170.608 20.173C170.608 15.6963 167.35 12.7202 163.29 12.7202C159.181 12.7202 155.822 15.5713 155.822 20.0479C155.822 24.5246 159.205 27.4757 163.29 27.4757H166.273V23.7993C166.273 23.7993 165.445 23.8243 163.616 23.8243C162.113 23.8243 160.308 23.1241 160.108 21.4985H170.457C170.432 21.4985 170.608 20.9483 170.608 20.173ZM160.133 18.8725C160.484 17.0968 161.712 16.2965 163.315 16.2965C164.894 16.2965 166.097 17.1469 166.323 18.8725H160.133Z" fill="white"/>
<path d="M18.5075 0H0V35H18.5075C28.1791 35 36 27.1459 36 17.5C36 7.85408 28.1791 0 18.5075 0Z" fill="url(#paint0_radial)"/>
<path d="M29 14.4039L25.9334 9.06668L20.5962 12.1628V6H14.4334V12.1628L9.09616 9.06668L6 14.4039L11.3667 17.5L6 20.5961L9.09616 25.9038L14.4334 22.8372V29H20.5962V22.8372L25.9334 25.9038L29 20.5961L23.6628 17.5L29 14.4039Z" fill="#0F0F0F"/>
<path d="M26.0717 9L21 11.9283L23.9282 17L29 14.0717L26.0717 9Z" fill="white"/>
<defs>
<radialGradient id="paint0_radial" cx="0" cy="0" r="1" gradientUnits="userSpaceOnUse" gradientTransform="translate(5.98321e-06 34.9766) rotate(-50.2495) scale(42.5684 46.3441)">
<stop stop-color="#84FF96"/>
<stop offset="0.453125" stop-color="#2EEC8D"/>
<stop offset="0.911458" stop-color="#00CA75"/>
</radialGradient>
</defs>
</svg>
