<svg width="43" height="96" viewBox="0 0 43 96" fill="none" xmlns="http://www.w3.org/2000/svg">
<path d="M4.67639 80.356C7.45181 80.356 9.59991 79.5478 11.1207 77.9314C12.6795 76.3151 13.3828 74.006 13.2308 71.0042L13.0597 66.386C12.8316 61.6909 13.611 57.8232 15.3979 54.7829C17.2228 51.7426 20.5115 49.4913 25.2639 48.0289C20.5115 46.4895 17.2228 44.2189 15.3979 41.2171C13.611 38.1768 12.8316 34.3091 13.0597 29.614L13.2308 24.9958C13.3828 22.0325 12.6795 19.7426 11.1207 18.1263C9.59991 16.5099 7.45181 15.7017 4.67639 15.7017H0V0H7.12865C15.2268 0 21.3289 2.28984 25.435 6.86952C29.5791 11.4107 31.4991 17.6452 31.195 25.5731L30.9668 30.5953C30.8148 33.7126 31.7843 36.1179 33.8753 37.8112C36.0044 39.5045 39.046 40.3512 43 40.3512V55.6488C39.046 55.6488 36.0044 56.4955 33.8753 58.1888C31.7843 59.8821 30.8148 62.2874 30.9668 65.4047L31.195 70.4269C31.4991 78.3933 29.5791 84.647 25.435 89.1882C21.3289 93.7294 15.2268 96 7.12865 96H0V80.356H4.67639Z" fill="#24EC8C"/>
</svg>
