<svg width="41" height="41" viewBox="0 0 41 41" fill="none" xmlns="http://www.w3.org/2000/svg">
<path fill-rule="evenodd" clip-rule="evenodd" d="M20.5382 0C9.32253 0 0.230469 9.09206 0.230469 20.3077C0.230469 31.5233 9.32253 40.6154 20.5382 40.6154C31.7538 40.6154 40.8459 31.5233 40.8459 20.3077C40.8459 9.09206 31.7538 0 20.5382 0ZM25.4763 17.9011L24.9496 21.5761L22.1839 21.5768V30.4614H18.475V21.5768H15.4611V17.9017H18.475V15.1005C18.475 11.9141 20.2471 10.1537 22.9583 10.1537C24.257 10.1537 25.6149 10.4018 25.6149 10.4018V13.5305H24.1183C22.6437 13.5305 22.1839 14.511 22.1839 15.5162V17.9011H25.4763Z" fill="white"/>
</svg>
