<svg width="41" height="41" viewBox="0 0 41 41" fill="none" xmlns="http://www.w3.org/2000/svg">
<path fill-rule="evenodd" clip-rule="evenodd" d="M20.3077 0.000488281C9.09206 0.000488281 0 9.09255 0 20.3082C0 31.5238 9.09206 40.6159 20.3077 40.6159C31.5233 40.6159 40.6154 31.5238 40.6154 20.3082C40.6154 9.09255 31.5233 0.000488281 20.3077 0.000488281ZM20.2785 22.0162L12.6917 16.509V28.1176H11.4243C10.7183 28.1176 10.157 27.5564 10.157 26.8503V14.0139C10.157 13.947 10.162 13.8854 10.1717 13.8285C10.1988 13.639 10.2711 13.4542 10.3932 13.2896C10.8096 12.7284 11.6243 12.6016 12.2037 13.0181L20.2966 18.9021L28.4438 12.9456C29.005 12.5292 29.8016 12.656 30.218 13.2353C30.4402 13.5347 30.5078 13.9012 30.4345 14.2411V26.8684C30.4345 27.5564 29.8732 28.1176 29.1671 28.1176H27.8998V16.4825L20.2785 22.0162Z" fill="white"/>
</svg>
