<svg width="42" height="41" viewBox="0 0 42 41" fill="none" xmlns="http://www.w3.org/2000/svg">
<path fill-rule="evenodd" clip-rule="evenodd" d="M20.9229 0C9.7073 0 0.615234 9.09206 0.615234 20.3077C0.615234 31.5233 9.7073 40.6154 20.9229 40.6154C32.1386 40.6154 41.2306 31.5233 41.2306 20.3077C41.2306 9.09206 32.1386 0 20.9229 0ZM29.3685 11.8562C29.8797 12.3665 30.2787 12.9778 30.5398 13.6509C30.8408 14.4495 31.0014 15.294 31.0145 16.1471C31.0777 17.2247 31.0777 17.5737 31.0777 20.3244C31.0777 23.0751 31.063 23.4186 31.0145 24.5017C30.9976 25.3439 30.8386 26.1749 30.542 26.9631C30.2806 27.6361 29.8815 28.2473 29.3703 28.7578C28.8591 29.2682 28.2469 29.6667 27.5728 29.9277C26.7836 30.2228 25.9501 30.3824 25.1076 30.3995C24.0307 30.4614 23.6777 30.4614 20.9238 30.4614C18.17 30.4614 17.826 30.4467 16.74 30.3995C15.8958 30.3717 15.0625 30.2004 14.276 29.8928C13.6017 29.6322 12.9893 29.2341 12.4778 28.7238C11.9664 28.2135 11.5671 27.6023 11.3056 26.9293C11.0091 26.14 10.85 25.309 10.8331 24.4668C10.77 23.3893 10.77 23.0391 10.77 20.2895C10.77 17.5388 10.7846 17.1954 10.8331 16.1122C10.8496 15.271 11.0094 14.4386 11.3056 13.6509C11.5664 12.9776 11.9652 12.3662 12.4766 11.8558C12.9879 11.3455 13.6004 10.9475 14.2749 10.6874C15.0629 10.3908 15.8958 10.2309 16.7378 10.2145C17.8147 10.1537 18.1677 10.1537 20.9216 10.1537C23.6754 10.1537 24.0194 10.1672 25.1054 10.2145C25.948 10.2318 26.7815 10.3917 27.5705 10.6874C28.2448 10.9478 28.8572 11.3459 29.3685 11.8562ZM28.8155 26.2841C29.0403 25.6752 29.1589 25.0324 29.1662 24.3835V24.3846H29.1786C29.2271 23.3082 29.2271 23.0132 29.2271 20.2707V20.2704C29.2271 17.5264 29.2147 17.2258 29.1662 16.155C29.1557 15.5134 29.0372 14.8781 28.8155 14.2758C28.646 13.8379 28.3867 13.4402 28.0543 13.1082C27.7218 12.7763 27.3235 12.5174 26.8849 12.3482C26.282 12.1242 25.6449 12.0057 25.0016 11.998C23.9111 11.9361 23.6292 11.9361 20.881 11.9361C18.1328 11.9361 17.8317 11.9496 16.7592 11.998C16.1165 12.007 15.4799 12.1254 14.8771 12.3482C13.9873 12.6882 13.2825 13.3874 12.9386 14.2758C12.7138 14.8843 12.5951 15.5268 12.5878 16.1753C12.5281 17.2663 12.5281 17.5467 12.5281 20.2907C12.5281 23.0335 12.5393 23.3352 12.5878 24.4049C12.5983 25.0465 12.7169 25.6818 12.9386 26.2841C13.1087 26.7228 13.3691 27.1209 13.703 27.4528C14.0369 27.7847 14.4369 28.0428 14.8771 28.2106C15.4796 28.4345 16.1163 28.5529 16.7592 28.5608C17.8508 28.6227 18.1316 28.6227 20.881 28.6227C23.6281 28.6227 23.9303 28.6103 25.0016 28.5608C25.6448 28.5525 26.2818 28.434 26.8849 28.2106C27.3235 28.0418 27.7219 27.7831 28.0544 27.4514C28.3869 27.1196 28.6461 26.7219 28.8155 26.2841ZM26.3368 16.0987C27.0082 16.0987 27.5525 15.5553 27.5525 14.885C27.5525 14.2146 27.0082 13.6712 26.3368 13.6712C25.6654 13.6712 25.1211 14.2146 25.1211 14.885C25.1211 15.5553 25.6654 16.0987 26.3368 16.0987ZM20.9159 15.0764C19.533 15.0764 18.2066 15.6249 17.2287 16.6013C16.2508 17.5777 15.7014 18.9019 15.7014 20.2828C15.7014 21.6636 16.2508 22.9879 17.2287 23.9643C18.2066 24.9406 19.533 25.4892 20.9159 25.4892C22.2989 25.4892 23.6252 24.9406 24.6031 23.9643C25.5811 22.9879 26.1304 21.6636 26.1304 20.2828C26.1304 18.9019 25.5811 17.5777 24.6031 16.6013C23.6252 15.6249 22.2989 15.0764 20.9159 15.0764ZM20.9159 23.664C20.0175 23.664 19.1558 23.3077 18.5205 22.6733C17.8852 22.039 17.5283 21.1787 17.5283 20.2816C17.5283 19.3846 17.8852 18.5243 18.5205 17.89C19.1558 17.2556 20.0175 16.8993 20.9159 16.8993C21.8144 16.8993 22.676 17.2556 23.3113 17.89C23.9466 18.5243 24.3036 19.3846 24.3036 20.2816C24.3036 21.1787 23.9466 22.039 23.3113 22.6733C22.676 23.3077 21.8144 23.664 20.9159 23.664Z" fill="white"/>
</svg>
